<svg xmlns="http://www.w3.org/2000/svg" version="1.1" xmlns:xlink="http://www.w3.org/1999/xlink" xmlns:svgjs="http://svgjs.dev/svgjs" width="100" height="100"><svg width="100" height="100" viewBox="0 0 100 100" fill="none" xmlns="http://www.w3.org/2000/svg">
<rect width="100" height="100" fill="#10100E"></rect>
<path d="M10.776 32.96H14.424V40.4L20.616 32.96H24.864L18.6 40.472L25.248 50H21.096L16.2 42.92L14.424 44.984V50H10.776V32.96ZM26.5219 32.96H30.5299L34.2739 39.896L37.9939 32.96H42.0019L36.0979 43.376V50H32.4259V43.376L26.5219 32.96ZM51.4978 32.96C55.0258 32.96 57.6178 34.784 57.6178 38.072C57.6178 40.232 56.3698 41.696 54.5218 42.176C56.3458 42.392 57.2098 43.256 57.3538 45.104L57.7858 50H54.1138L53.7778 45.728C53.6578 44.24 52.8658 43.76 50.8738 43.76H47.6818V50H44.0338V32.96H51.4978ZM47.6818 40.712H50.9698C52.8418 40.712 53.8738 39.872 53.8738 38.384C53.8738 36.872 52.8658 36.032 50.9698 36.032H47.6818V40.712ZM67.9275 32.96C71.4555 32.96 74.0475 34.784 74.0475 38.072C74.0475 40.232 72.7995 41.696 70.9515 42.176C72.7755 42.392 73.6395 43.256 73.7835 45.104L74.2155 50H70.5435L70.2075 45.728C70.0875 44.24 69.2955 43.76 67.3035 43.76H64.1115V50H60.4635V32.96H67.9275ZM64.1115 40.712H67.3995C69.2715 40.712 70.3035 39.872 70.3035 38.384C70.3035 36.872 69.2955 36.032 67.3995 36.032H64.1115V40.712ZM76.8932 32.96H88.7492V36.032H80.5412V39.944H88.4612V42.968H80.5412V46.928H88.9412V50H76.8932V32.96ZM9.936 68.448H13.776V72H9.936V68.448ZM22.3748 54.96C27.8948 54.96 30.9908 58.032 30.9908 63.504C30.9908 68.952 27.9427 72 22.5188 72H16.4948V54.96H22.3748ZM20.1428 68.928H22.3748C25.6868 68.928 27.2708 67.176 27.2708 63.48C27.2708 59.784 25.6868 58.032 22.3748 58.032H20.1428V68.928ZM33.3932 54.96H45.2492V58.032H37.0412V61.944H44.9612V64.968H37.0412V68.928H45.4412V72H33.3932V54.96ZM47.3344 54.96H51.1024L55.6384 67.872L60.1264 54.96H63.9184L57.7504 72H53.5024L47.3344 54.96Z" fill="#FFFFE6"></path>
</svg><style>@media (prefers-color-scheme: light) { :root { filter: none; } }
@media (prefers-color-scheme: dark) { :root { filter: none; } }
</style></svg>